<svg width="16" height="16" viewBox="0 0 16 16" fill="none" xmlns="http://www.w3.org/2000/svg">
<path d="M14.733 6.06667C14.6663 3.8 12.8663 2 10.5997 2C9.86634 2 8.73301 2.53333 8.26634 3.4C8.19967 3.6 7.93301 3.6 7.86634 3.4C7.33301 2.6 6.26634 2.06667 5.46634 2.06667C3.26634 2.06667 1.39967 3.86667 1.33301 6.06667V6.2C1.33301 7.33333 1.79967 8.4 2.59967 9.2C2.59967 9.2 2.59967 9.2 2.59967 9.26667C2.66634 9.33333 5.86634 12.1333 7.33301 13.4C7.73301 13.7333 8.33301 13.7333 8.73301 13.4C10.1997 12.1333 13.333 9.33333 13.4663 9.26667C13.4663 9.26667 13.4663 9.26667 13.4663 9.2C14.2663 8.46667 14.733 7.4 14.733 6.2V6.06667Z" fill="#FF68CC"/>
</svg>
